<?xml version="1.0" encoding="UTF-8"?>
<!-- Generator: Adobe Illustrator 21.1.0, SVG Export Plug-In . SVG Version: 6.00 Build 0)  -->
<svg version="1.1" id="Layer_1" xmlns="http://www.w3.org/2000/svg" xmlns:xlink="http://www.w3.org/1999/xlink" x="0px" y="0px" viewBox="0 0 931 168.8" style="enable-background:new 0 0 931 168.8;" xml:space="preserve">
<style type="text/css">
	.st0{fill:#639BD1;}
	.st1{fill:#424242;}
	.st2{font-family:'UtopiaStd-Regular';}
	.st3{font-size:114.7945px;}
	.st4{letter-spacing:-1;}
</style>
<g>
	<path class="st0" d="M227,3.1c-2.4-2-5.7-3.1-10-3.1c-7.1,0-13.5,4-19,11.9s-13.4,33.2-23.6,75.9l-10,41.5L122.5,2H84.9l-1.3,5.5   c10.3,0.2,16.7,1.2,19.3,3.2c2.6,2,3.9,4.3,3.9,6.9c0,0.9-1.1,5.9-3.4,14.9L91,84c-4.8,20-9.2,36.2-13.1,48.5L49,38   c-3.4-10.9-5.1-17.7-5.1-20.3c0-3,1-5.3,3.1-6.9s6.8-2.7,14.2-3.2V2H0v5.5c5.9,0.2,10,1.3,12.6,3.1c2.5,1.8,4.6,4.6,6.1,8.4   c1.6,3.8,4.1,11.5,7.6,23l39.3,126.8l0,0c5.3-5.5,11.1-15.5,15.1-27.3c4.4-12.8,9.3-30.7,14.9-53.9L110,28.5l45.4,138.3h5.7   l18.3-76.1c8.5-35.4,14.6-57.6,18.4-66.6c3.7-9,7.2-13.5,10.5-13.5c1.8,0,3.4,1.1,4.8,3.4c2.5,3.9,5.3,5.8,8.3,5.8   c2.4,0,4.6-0.8,6.4-2.5c1.9-1.7,2.8-3.9,2.8-6.6C230.6,7.7,229.4,5.1,227,3.1z"/>
</g>
<text transform="matrix(1 0 0 1 220.8313 129.6423)" class="st1 st2 st3 st4">Wild Nature</text>
</svg>